<?xml version="1.0" encoding="UTF-8" standalone="no"?>
<!DOCTYPE svg PUBLIC "-//W3C//DTD SVG 1.1//EN"
 "http://www.w3.org/Graphics/SVG/1.1/DTD/svg11.dtd">
<!-- Generated by graphviz version 2.41.20170306.1813 (20170306.1813)
 -->
<!-- Title: %3 Pages: 1 -->
<svg width="761pt" height="1679pt"
 viewBox="0.00 0.00 761.00 1679.00" xmlns="http://www.w3.org/2000/svg" xmlns:xlink="http://www.w3.org/1999/xlink">
<g id="graph0" class="graph" transform="scale(1 1) rotate(0) translate(4 1675)">
<title>%3</title>
<polygon fill="#ffffff" stroke="transparent" points="-4,4 -4,-1675 757,-1675 757,4 -4,4"/>
<g id="clust1" class="cluster">
<title>cluster_void chktst()</title>
<polygon fill="none" stroke="#000000" stroke-dasharray="5,2" points="8,-8 8,-1663 745,-1663 745,-8 8,-8"/>
<text text-anchor="middle" x="376.5" y="-1647.8" font-family="Times,serif" font-size="14.00" fill="#000000">void chktst() ()</text>
</g>
<!-- fn_0_basic_block_0 -->
<g id="node1" class="node">
<title>fn_0_basic_block_0</title>
<polygon fill="#ffffff" stroke="#000000" points="303,-1632 246.0245,-1614 303,-1596 359.9755,-1614 303,-1632"/>
<polyline fill="none" stroke="#000000" points="257.467,-1617.615 257.467,-1610.385 "/>
<polyline fill="none" stroke="#000000" points="291.5575,-1599.615 314.4425,-1599.615 "/>
<polyline fill="none" stroke="#000000" points="348.533,-1610.385 348.533,-1617.615 "/>
<polyline fill="none" stroke="#000000" points="314.4425,-1628.385 291.5575,-1628.385 "/>
<text text-anchor="middle" x="303" y="-1610.3" font-family="Times,serif" font-size="14.00" fill="#000000">ENTRY</text>
</g>
<!-- fn_0_basic_block_1 -->
<g id="node2" class="node">
<title>fn_0_basic_block_1</title>
<polygon fill="#ffffff" stroke="#000000" points="59,-52 15.5983,-34 59,-16 102.4017,-34 59,-52"/>
<polyline fill="none" stroke="#000000" points="26.6828,-38.5971 26.6828,-29.4029 "/>
<polyline fill="none" stroke="#000000" points="47.9155,-20.5971 70.0845,-20.5971 "/>
<polyline fill="none" stroke="#000000" points="91.3172,-29.4029 91.3172,-38.5971 "/>
<polyline fill="none" stroke="#000000" points="70.0845,-47.4029 47.9155,-47.4029 "/>
<text text-anchor="middle" x="59" y="-30.3" font-family="Times,serif" font-size="14.00" fill="#000000">EXIT</text>
</g>
<!-- fn_0_basic_block_0&#45;&gt;fn_0_basic_block_1 -->
<!-- fn_0_basic_block_0&#45;&gt;fn_0_basic_block_1 -->
<!-- fn_0_basic_block_2 -->
<g id="node3" class="node">
<title>fn_0_basic_block_2</title>
<polygon fill="#d3d3d3" stroke="#000000" points="194,-1069.5 194,-1506.5 540,-1506.5 540,-1069.5 194,-1069.5"/>
<text text-anchor="middle" x="367" y="-1491.3" font-family="Times,serif" font-size="14.00" fill="#000000">FREQ:0</text>
<polyline fill="none" stroke="#000000" points="194,-1483.5 540,-1483.5 "/>
<text text-anchor="start" x="202" y="-1468.3" font-family="Times,serif" font-size="14.00" fill="#000000">3: NOTE_INSN_BASIC_BLOCK 2</text>
<polyline fill="none" stroke="#000000" points="194,-1460.5 540,-1460.5 "/>
<text text-anchor="start" x="202" y="-1445.3" font-family="Times,serif" font-size="14.00" fill="#000000">38: [&#45;&#45;sp:DI]=bp:DI</text>
<polyline fill="none" stroke="#000000" points="194,-1437.5 540,-1437.5 "/>
<text text-anchor="start" x="202" y="-1422.3" font-family="Times,serif" font-size="14.00" fill="#000000">39: bp:DI=sp:DI</text>
<polyline fill="none" stroke="#000000" points="194,-1414.5 540,-1414.5 "/>
<text text-anchor="start" x="202" y="-1399.3" font-family="Times,serif" font-size="14.00" fill="#000000">40: {sp:DI=sp:DI&#45;0x10;clobber flags:CC;clobber [scratch];}</text>
<polyline fill="none" stroke="#000000" points="194,-1391.5 540,-1391.5 "/>
<text text-anchor="start" x="202" y="-1376.3" font-family="Times,serif" font-size="14.00" fill="#000000">41: NOTE_INSN_PROLOGUE_END</text>
<polyline fill="none" stroke="#000000" points="194,-1368.5 540,-1368.5 "/>
<text text-anchor="start" x="202" y="-1353.3" font-family="Times,serif" font-size="14.00" fill="#000000">2: NOTE_INSN_FUNCTION_BEG</text>
<polyline fill="none" stroke="#000000" points="194,-1345.5 540,-1345.5 "/>
<text text-anchor="start" x="202" y="-1330.3" font-family="Times,serif" font-size="14.00" fill="#000000">5: [bp:DI&#45;0x4]=0</text>
<polyline fill="none" stroke="#000000" points="194,-1322.5 540,-1322.5 "/>
<text text-anchor="start" x="202" y="-1307.3" font-family="Times,serif" font-size="14.00" fill="#000000">6: NOTE_INSN_DELETED_LABEL (&quot;lab1&quot;)</text>
<polyline fill="none" stroke="#000000" points="194,-1299.5 540,-1299.5 "/>
<text text-anchor="start" x="202" y="-1284.3" font-family="Times,serif" font-size="14.00" fill="#000000">8: dx:SI=[`ariane&#39;]</text>
<polyline fill="none" stroke="#000000" points="194,-1276.5 540,-1276.5 "/>
<text text-anchor="start" x="202" y="-1261.3" font-family="Times,serif" font-size="14.00" fill="#000000">9: ax:SI=[`delta&#39;]</text>
<polyline fill="none" stroke="#000000" points="194,-1253.5 540,-1253.5 "/>
<text text-anchor="start" x="202" y="-1238.3" font-family="Times,serif" font-size="14.00" fill="#000000">10: {ax:SI=ax:SI+dx:SI;clobber flags:CC;}</text>
<polyline fill="none" stroke="#000000" points="194,-1230.5 540,-1230.5 "/>
<text text-anchor="start" x="202" y="-1215.3" font-family="Times,serif" font-size="14.00" fill="#000000">11: [`ariane&#39;]=ax:SI</text>
<polyline fill="none" stroke="#000000" points="194,-1207.5 540,-1207.5 "/>
<text text-anchor="start" x="202" y="-1192.3" font-family="Times,serif" font-size="14.00" fill="#000000">12: ax:SI=[`ariane&#39;]</text>
<polyline fill="none" stroke="#000000" points="194,-1184.5 540,-1184.5 "/>
<text text-anchor="start" x="202" y="-1169.3" font-family="Times,serif" font-size="14.00" fill="#000000">13: [bp:DI&#45;0x4]=ax:SI</text>
<polyline fill="none" stroke="#000000" points="194,-1161.5 540,-1161.5 "/>
<text text-anchor="start" x="202" y="-1146.3" font-family="Times,serif" font-size="14.00" fill="#000000">14: NOTE_INSN_DELETED_LABEL (&quot;lab2&quot;)</text>
<polyline fill="none" stroke="#000000" points="194,-1138.5 540,-1138.5 "/>
<text text-anchor="start" x="202" y="-1123.3" font-family="Times,serif" font-size="14.00" fill="#000000">16: ax:SI=[`ariane&#39;]</text>
<polyline fill="none" stroke="#000000" points="194,-1115.5 540,-1115.5 "/>
<text text-anchor="start" x="202" y="-1100.3" font-family="Times,serif" font-size="14.00" fill="#000000">17: flags:CCZ=cmp(ax:SI,[bp:DI&#45;0x4])</text>
<polyline fill="none" stroke="#000000" points="194,-1092.5 540,-1092.5 "/>
<text text-anchor="start" x="202" y="-1077.3" font-family="Times,serif" font-size="14.00" fill="#000000">18: pc={(flags:CCZ==0)?L26:pc}</text>
</g>
<!-- fn_0_basic_block_0&#45;&gt;fn_0_basic_block_2 -->
<g id="edge1" class="edge">
<title>fn_0_basic_block_0:s&#45;&gt;fn_0_basic_block_2:n</title>
<path fill="none" stroke="#0000ff" stroke-width="2" d="M303,-1596C303,-1572.0659 303.5182,-1563.7758 317,-1544 330.2606,-1524.5486 357.1947,-1531.4415 364.8986,-1516.8451"/>
<polygon fill="#0000ff" stroke="#0000ff" stroke-width="2" points="368.3353,-1517.5103 367,-1507 361.4895,-1516.0491 368.3353,-1517.5103"/>
<text text-anchor="middle" x="331" y="-1547.8" font-family="Times,serif" font-size="14.00" fill="#000000">[0%]</text>
</g>
<!-- fn_0_basic_block_0&#45;&gt;fn_0_basic_block_2 -->
<g id="edge8" class="edge">
<title>fn_0_basic_block_0:s&#45;&gt;fn_0_basic_block_2:n</title>
<path fill="none" stroke="#0000ff" stroke-width="2" d="M303,-1596C303,-1571.123 330.4562,-1579.1827 345,-1559 357.4932,-1541.663 364.6624,-1534.3422 366.5155,-1517.0546"/>
<polygon fill="#0000ff" stroke="#0000ff" stroke-width="2" points="370.0145,-1517.1569 367,-1507 363.0227,-1516.8199 370.0145,-1517.1569"/>
<text text-anchor="middle" x="369" y="-1547.8" font-family="Times,serif" font-size="14.00" fill="#000000">[0%]</text>
</g>
<!-- fn_0_basic_block_3 -->
<g id="node4" class="node">
<title>fn_0_basic_block_3</title>
<polygon fill="#d3d3d3" stroke="#000000" points="139.5,-773.5 139.5,-979.5 466.5,-979.5 466.5,-773.5 139.5,-773.5"/>
<text text-anchor="middle" x="303" y="-964.3" font-family="Times,serif" font-size="14.00" fill="#000000">FREQ:0</text>
<polyline fill="none" stroke="#000000" points="139.5,-956.5 466.5,-956.5 "/>
<text text-anchor="start" x="147.5" y="-941.3" font-family="Times,serif" font-size="14.00" fill="#000000">19: NOTE_INSN_BASIC_BLOCK 3</text>
<polyline fill="none" stroke="#000000" points="139.5,-933.5 466.5,-933.5 "/>
<text text-anchor="start" x="147.5" y="-918.3" font-family="Times,serif" font-size="14.00" fill="#000000">20: cx:DI=`_ZZ6chktstvE19__PRETTY_FUNCTION__&#39;</text>
<polyline fill="none" stroke="#000000" points="139.5,-910.5 466.5,-910.5 "/>
<text text-anchor="start" x="147.5" y="-895.3" font-family="Times,serif" font-size="14.00" fill="#000000">21: dx:SI=0x15</text>
<polyline fill="none" stroke="#000000" points="139.5,-887.5 466.5,-887.5 "/>
<text text-anchor="start" x="147.5" y="-872.3" font-family="Times,serif" font-size="14.00" fill="#000000">22: si:DI=`*.LC0&#39;</text>
<polyline fill="none" stroke="#000000" points="139.5,-864.5 466.5,-864.5 "/>
<text text-anchor="start" x="147.5" y="-849.3" font-family="Times,serif" font-size="14.00" fill="#000000">23: di:DI=0</text>
<polyline fill="none" stroke="#000000" points="139.5,-841.5 466.5,-841.5 "/>
<text text-anchor="start" x="147.5" y="-826.3" font-family="Times,serif" font-size="14.00" fill="#000000">24: call [`__assert_fail&#39;] argc:0</text>
<text text-anchor="start" x="147.5" y="-811.3" font-family="Times,serif" font-size="14.00" fill="#000000"> &#160;&#160;&#160;&#160;&#160;REG_ARGS_SIZE 0</text>
<text text-anchor="start" x="147.5" y="-796.3" font-family="Times,serif" font-size="14.00" fill="#000000"> &#160;&#160;&#160;&#160;&#160;REG_NORETURN 0</text>
<text text-anchor="start" x="147.5" y="-781.3" font-family="Times,serif" font-size="14.00" fill="#000000"> &#160;&#160;&#160;&#160;&#160;REG_EH_REGION 0</text>
</g>
<!-- fn_0_basic_block_2&#45;&gt;fn_0_basic_block_3 -->
<g id="edge2" class="edge">
<title>fn_0_basic_block_2:s&#45;&gt;fn_0_basic_block_3:n</title>
<path fill="none" stroke="#0000ff" stroke-width="2" d="M367,-1069C367,-1041.355 332.5448,-1054.8606 317,-1032 305.5429,-1015.1508 303.4529,-1006.551 303.0794,-989.7693"/>
<polygon fill="#0000ff" stroke="#0000ff" stroke-width="2" points="306.5773,-989.4726 303,-979.5 299.5776,-989.5268 306.5773,-989.4726"/>
<text text-anchor="middle" x="331" y="-1020.8" font-family="Times,serif" font-size="14.00" fill="#000000">[0%]</text>
</g>
<!-- fn_0_basic_block_2&#45;&gt;fn_0_basic_block_3 -->
<g id="edge9" class="edge">
<title>fn_0_basic_block_2:s&#45;&gt;fn_0_basic_block_3:n</title>
<path fill="none" stroke="#0000ff" stroke-width="2" d="M367,-1069C367,-1043.9056 359.603,-1037.4079 345,-1017 332.8268,-999.9879 311.6564,-1002.7001 305.0376,-989.43"/>
<polygon fill="#0000ff" stroke="#0000ff" stroke-width="2" points="308.4387,-988.5924 303,-979.5 301.5816,-989.9994 308.4387,-988.5924"/>
<text text-anchor="middle" x="369" y="-1020.8" font-family="Times,serif" font-size="14.00" fill="#000000">[0%]</text>
</g>
<!-- fn_0_basic_block_4 -->
<g id="node5" class="node">
<title>fn_0_basic_block_4</title>
<polygon fill="#d3d3d3" stroke="#000000" points="137,-392.5 137,-683.5 469,-683.5 469,-392.5 137,-392.5"/>
<text text-anchor="middle" x="303" y="-668.3" font-family="Times,serif" font-size="14.00" fill="#000000">FREQ:0</text>
<polyline fill="none" stroke="#000000" points="137,-660.5 469,-660.5 "/>
<text text-anchor="start" x="145" y="-645.3" font-family="Times,serif" font-size="14.00" fill="#000000">26: L26:</text>
<polyline fill="none" stroke="#000000" points="137,-637.5 469,-637.5 "/>
<text text-anchor="start" x="145" y="-622.3" font-family="Times,serif" font-size="14.00" fill="#000000">27: NOTE_INSN_BASIC_BLOCK 4</text>
<polyline fill="none" stroke="#000000" points="137,-614.5 469,-614.5 "/>
<text text-anchor="start" x="145" y="-599.3" font-family="Times,serif" font-size="14.00" fill="#000000">28: dx:SI=[`ariane&#39;]</text>
<polyline fill="none" stroke="#000000" points="137,-591.5 469,-591.5 "/>
<text text-anchor="start" x="145" y="-576.3" font-family="Times,serif" font-size="14.00" fill="#000000">29: ax:SI=[`delta&#39;]</text>
<polyline fill="none" stroke="#000000" points="137,-568.5 469,-568.5 "/>
<text text-anchor="start" x="145" y="-553.3" font-family="Times,serif" font-size="14.00" fill="#000000">30: {dx:SI=dx:SI&#45;ax:SI;clobber flags:CC;}</text>
<polyline fill="none" stroke="#000000" points="137,-545.5 469,-545.5 "/>
<text text-anchor="start" x="145" y="-530.3" font-family="Times,serif" font-size="14.00" fill="#000000">37: ax:SI=dx:SI</text>
<polyline fill="none" stroke="#000000" points="137,-522.5 469,-522.5 "/>
<text text-anchor="start" x="145" y="-507.3" font-family="Times,serif" font-size="14.00" fill="#000000">31: [`ariane&#39;]=ax:SI</text>
<polyline fill="none" stroke="#000000" points="137,-499.5 469,-499.5 "/>
<text text-anchor="start" x="145" y="-484.3" font-family="Times,serif" font-size="14.00" fill="#000000">34: 0</text>
<polyline fill="none" stroke="#000000" points="137,-476.5 469,-476.5 "/>
<text text-anchor="start" x="145" y="-461.3" font-family="Times,serif" font-size="14.00" fill="#000000">42: NOTE_INSN_EPILOGUE_BEG</text>
<polyline fill="none" stroke="#000000" points="137,-453.5 469,-453.5 "/>
<text text-anchor="start" x="145" y="-438.3" font-family="Times,serif" font-size="14.00" fill="#000000">43: {sp:DI=bp:DI+0x8;bp:DI=[bp:DI];clobber [scratch];}</text>
<text text-anchor="start" x="145" y="-423.3" font-family="Times,serif" font-size="14.00" fill="#000000"> &#160;&#160;&#160;&#160;&#160;REG_CFA_DEF_CFA sp:DI+0x8</text>
<polyline fill="none" stroke="#000000" points="137,-415.5 469,-415.5 "/>
<text text-anchor="start" x="145" y="-400.3" font-family="Times,serif" font-size="14.00" fill="#000000">44: simple_return</text>
</g>
<!-- fn_0_basic_block_2&#45;&gt;fn_0_basic_block_4 -->
<g id="edge10" class="edge">
<title>fn_0_basic_block_2:s&#45;&gt;fn_0_basic_block_4:n</title>
<path fill="none" stroke="#000000" stroke-width="2" d="M367,-1069C367,-1005.8244 502,-1087.6756 502,-1024.5 502,-1024.5 502,-1024.5 502,-728.5 502,-686.9028 334.3093,-722.3617 306.7976,-693.4065"/>
<polygon fill="#000000" stroke="#000000" stroke-width="2" points="309.9892,-691.9626 303,-684 303.4982,-694.5831 309.9892,-691.9626"/>
<text text-anchor="middle" x="516" y="-872.8" font-family="Times,serif" font-size="14.00" fill="#000000">[0%]</text>
</g>
<!-- fn_0_basic_block_3&#45;&gt;fn_0_basic_block_4 -->
<g id="edge3" class="edge">
<title>fn_0_basic_block_3:s&#45;&gt;fn_0_basic_block_4:n</title>
<path fill="none" stroke="#0000ff" stroke-width="2" d="M303,-773.5C303,-737.296 303,-725.8055 303,-694.0422"/>
<polygon fill="#0000ff" stroke="#0000ff" stroke-width="2" points="306.5001,-694 303,-684 299.5001,-694 306.5001,-694"/>
<text text-anchor="middle" x="317" y="-724.8" font-family="Times,serif" font-size="14.00" fill="#000000">[0%]</text>
</g>
<!-- fn_0_basic_block_4&#45;&gt;fn_0_basic_block_1 -->
<g id="edge11" class="edge">
<title>fn_0_basic_block_4:s&#45;&gt;fn_0_basic_block_1:n</title>
<path fill="none" stroke="#000000" stroke-width="2" d="M303,-392C303,-335.79 54,-403.71 54,-347.5 54,-347.5 54,-347.5 54,-96.5 54,-80.4849 57.2376,-74.3165 58.5023,-62.1478"/>
<polygon fill="#000000" stroke="#000000" stroke-width="2" points="62.0058,-62.1595 59,-52 55.0142,-61.8165 62.0058,-62.1595"/>
<text text-anchor="middle" x="75" y="-218.3" font-family="Times,serif" font-size="14.00" fill="#000000">[100%]</text>
</g>
<!-- fn_0_basic_block_5 -->
<g id="node6" class="node">
<title>fn_0_basic_block_5</title>
<polygon fill="#d3d3d3" stroke="#000000" points="113.5,-187.5 113.5,-256.5 492.5,-256.5 492.5,-187.5 113.5,-187.5"/>
<text text-anchor="middle" x="303" y="-241.3" font-family="Times,serif" font-size="14.00" fill="#000000">FREQ:0</text>
<polyline fill="none" stroke="#000000" points="113.5,-233.5 492.5,-233.5 "/>
<text text-anchor="start" x="121.5" y="-218.3" font-family="Times,serif" font-size="14.00" fill="#000000">&lt;bb 5&gt;:</text>
<polyline fill="none" stroke="#000000" points="113.5,-210.5 492.5,-210.5 "/>
<text text-anchor="start" x="121.5" y="-195.3" font-family="Times,serif" font-size="14.00" fill="#000000">__assert_fail (0B, &quot;chkadd.c&quot;, 21, &amp;__PRETTY_FUNCTION__);</text>
</g>
<!-- fn_0_basic_block_4&#45;&gt;fn_0_basic_block_5 -->
<g id="edge4" class="edge">
<title>fn_0_basic_block_4:s&#45;&gt;fn_0_basic_block_5:n</title>
<path fill="none" stroke="#000000" stroke-width="2" d="M303,-392C303,-335.5156 303,-318.9123 303,-267.1015"/>
<polygon fill="#000000" stroke="#000000" stroke-width="2" points="306.5001,-267 303,-257 299.5001,-267 306.5001,-267"/>
<text text-anchor="middle" x="317" y="-343.8" font-family="Times,serif" font-size="14.00" fill="#000000">[0%]</text>
</g>
<!-- fn_0_basic_block_6 -->
<g id="node7" class="node">
<title>fn_0_basic_block_6</title>
<polygon fill="#d3d3d3" stroke="#000000" points="511,-141.5 511,-302.5 737,-302.5 737,-141.5 511,-141.5"/>
<text text-anchor="middle" x="624" y="-287.3" font-family="Times,serif" font-size="14.00" fill="#000000">FREQ:0</text>
<polyline fill="none" stroke="#000000" points="511,-279.5 737,-279.5 "/>
<text text-anchor="start" x="519" y="-264.3" font-family="Times,serif" font-size="14.00" fill="#000000">&lt;bb 6&gt;:</text>
<polyline fill="none" stroke="#000000" points="511,-256.5 737,-256.5 "/>
<text text-anchor="start" x="519" y="-241.3" font-family="Times,serif" font-size="14.00" fill="#000000">ariane.4_9 = ariane;</text>
<polyline fill="none" stroke="#000000" points="511,-233.5 737,-233.5 "/>
<text text-anchor="start" x="519" y="-218.3" font-family="Times,serif" font-size="14.00" fill="#000000">delta.5_10 = delta;</text>
<polyline fill="none" stroke="#000000" points="511,-210.5 737,-210.5 "/>
<text text-anchor="start" x="519" y="-195.3" font-family="Times,serif" font-size="14.00" fill="#000000">ariane.6_11 = ariane.4_9 &#45; delta.5_10;</text>
<polyline fill="none" stroke="#000000" points="511,-187.5 737,-187.5 "/>
<text text-anchor="start" x="519" y="-172.3" font-family="Times,serif" font-size="14.00" fill="#000000">ariane = ariane.6_11;</text>
<polyline fill="none" stroke="#000000" points="511,-164.5 737,-164.5 "/>
<text text-anchor="start" x="519" y="-149.3" font-family="Times,serif" font-size="14.00" fill="#000000">return;</text>
</g>
<!-- fn_0_basic_block_4&#45;&gt;fn_0_basic_block_6 -->
<g id="edge5" class="edge">
<title>fn_0_basic_block_4:s&#45;&gt;fn_0_basic_block_6:n</title>
<path fill="none" stroke="#000000" stroke-width="2" d="M303,-392C303,-321.5901 593.4177,-371.5751 621.7788,-312.9226"/>
<polygon fill="#000000" stroke="#000000" stroke-width="2" points="625.2309,-313.5231 624,-303 618.4,-311.9939 625.2309,-313.5231"/>
<text text-anchor="middle" x="573" y="-343.8" font-family="Times,serif" font-size="14.00" fill="#000000">[0%]</text>
</g>
<!-- fn_0_basic_block_6&#45;&gt;fn_0_basic_block_1 -->
<g id="edge6" class="edge">
<title>fn_0_basic_block_6:s&#45;&gt;fn_0_basic_block_1:n</title>
<path fill="none" stroke="#000000" stroke-width="2" d="M624,-141C624,109.732 74.3436,-294.865 59.3139,-62.0522"/>
<polygon fill="#000000" stroke="#000000" stroke-width="2" points="62.8106,-61.8858 59,-52 55.814,-62.1044 62.8106,-61.8858"/>
<text text-anchor="middle" x="630" y="-92.8" font-family="Times,serif" font-size="14.00" fill="#000000">[0%]</text>
</g>
</g>
</svg>
